<svg width="40" height="35" viewBox="0 0 40 35" xmlns="http://www.w3.org/2000/svg" xmlns:xlink="http://www.w3.org/1999/xlink"><title>icon-for-doctors</title><defs><path id="a" d="M39 12.5V25H0V0h39z"/><path id="c" d="M14 25h14V0H0v25h14z"/></defs><g fill="none" fill-rule="evenodd"><path d="M15.2 5.375c0-.483.358-.875.8-.875h8c.442 0 .8.392.8.875V8H28V4.5C28 2.568 26.566 1 24.8 1h-9.6C13.434 1 12 2.568 12 4.5V8h3.2V5.375z" fill="#1C7C3D"/><g transform="translate(0 10)"><mask id="b" fill="#fff"><use xlink:href="#a"/></mask><path d="M26.813 14.097h-5.485v5.625h-3.656v-5.625h-5.485v-3.75h5.485V4.722h3.656v5.625h5.485v3.75zM0 25h39V0H0v25z" fill="#1C7C3D" mask="url(#b)"/></g><path d="M15.2 5.375c0-.483.358-.875.8-.875h8c.442 0 .8.392.8.875V8H28V4.5C28 2.568 26.566 1 24.8 1h-9.6C13.434 1 12 2.568 12 4.5V8h3.2V5.375z" fill="#45A85F"/><g transform="translate(12 10)"><mask id="d" fill="#fff"><use xlink:href="#c"/></mask><path fill="#45A85F" mask="url(#d)" d="M0 0l5.727 7.977V4.722h3.818v5.625h5.728v3.75H9.545L16.917 25H28V0z"/></g></g></svg>