<svg width="40" height="35" viewBox="0 0 40 35" xmlns="http://www.w3.org/2000/svg"><title>icon-for-patients</title><g fill="none" fill-rule="evenodd"><path d="M25 30v5H0v-5c0-6.304 1.988-5.361 9.453-8.584C6.83 19.531 5 15.556 5 12.5a7.5 7.5 0 1 1 15 0c0 3.056-1.836 7.031-4.457 8.916C23.008 24.64 25 23.696 25 30" fill="#1C7C3D"/><path d="M30.611 16.416c2.602-1.885 4.425-5.86 4.425-8.916 0-4.14-3.335-7.5-7.445-7.5-3.626 0-6.642 2.612-7.306 6.065a9.976 9.976 0 0 1 2.342 6.435c0 .566-.058 1.148-.145 1.729.61.86 1.309 1.621 2.085 2.187-1.15.498-2.157.894-3.06 1.235-.411.982-.92 1.929-1.507 2.793.199.073.392.146.577.215 4.735 1.777 7.014 2.915 7.014 9.341H40v-5c0-6.304-1.978-5.361-9.389-8.584" fill="#45A85F"/></g></svg>