<svg width="15" height="15" viewBox="0 0 15 15" xmlns="http://www.w3.org/2000/svg"><title>icon-search--blue</title><path d="M6.614 11.603a4.957 4.957 0 0 1-3.528-1.461 4.957 4.957 0 0 1-1.462-3.528c0-1.333.52-2.586 1.462-3.528a4.957 4.957 0 0 1 3.528-1.462c1.332 0 2.585.52 3.528 1.462a4.957 4.957 0 0 1 1.461 3.528 4.957 4.957 0 0 1-1.461 3.528 4.957 4.957 0 0 1-3.528 1.461zM15 13.849l-3.171-3.169a6.562 6.562 0 0 0 1.398-4.067 6.57 6.57 0 0 0-1.936-4.676A6.57 6.57 0 0 0 6.613 0a6.57 6.57 0 0 0-4.676 1.937A6.57 6.57 0 0 0 0 6.615a6.57 6.57 0 0 0 1.937 4.676 6.57 6.57 0 0 0 4.677 1.937 6.56 6.56 0 0 0 4.066-1.4L13.852 15 15 13.85z" fill="#0078BF" fill-rule="evenodd"/></svg>