<svg width="15" height="15" viewBox="0 0 15 15" xmlns="http://www.w3.org/2000/svg"><title>icon-shield</title><g fill="none" fill-rule="evenodd"><path d="M7.625 0C5.518 1.791 4.197 1.875 2 1.875v7.21C2 11.96 4.002 12.711 7.625 15c3.623-2.288 5.625-3.039 5.625-5.916V1.875c-2.197 0-3.518-.084-5.625-1.875m0 1.59C9.188 2.718 10.471 3.022 12 3.1v5.984c0 1.902-1.054 2.392-4.375 4.442-3.319-2.049-4.375-2.54-4.375-4.442V3.1c1.529-.078 2.813-.382 4.375-1.51" fill="#FFF"/><path fill="#48C372" d="M9.674 5.306l-2.79 2.862-1.309-1.24-.918.92 2.226 2.159 3.71-3.782z"/></g></svg>