<?xml version="1.0" encoding="UTF-8" standalone="no"?>
<svg width="35px" height="35px" viewBox="0 0 35 35" version="1.1" xmlns="http://www.w3.org/2000/svg" xmlns:xlink="http://www.w3.org/1999/xlink">
    <!-- Generator: Sketch 3.7.2 (28276) - http://www.bohemiancoding.com/sketch -->
    <title>icon-social-apps</title>
    <desc>Created with Sketch.</desc>
    <defs>
        <polygon id="path-1" points="35 17.5000729 35 35 0 35 0 17.5000729 0 0.000145833333 35 0.000145833333 35 17.5000729"></polygon>
    </defs>
    <g id="Page-1" stroke="none" stroke-width="1" fill="none" fill-rule="evenodd">
        <g>
            <polygon id="Fill-1" fill="#AAABB2" points="13 23 23 23 23 9 13 9"></polygon>
            <g id="Group-7">
                <path d="M17.5911458,25.5208333 C17.0369792,25.5208333 16.5892708,25.97 16.5892708,26.5227083 C16.5892708,27.076875 17.0369792,27.5260417 17.5911458,27.5260417 C18.1453125,27.5260417 18.5930208,27.076875 18.5930208,26.5227083 C18.5930208,25.97 18.1453125,25.5208333 17.5911458,25.5208333" id="Fill-2" fill="#AAABB2"></path>
                <g id="Group-6">
                    <mask id="mask-2" fill="white">
                        <use xlink:href="#path-1"></use>
                    </mask>
                    <g id="Clip-5"></g>
                    <path d="M24.609375,26.2005625 C24.609375,28.4216042 21.1035417,29.5313958 17.59625,29.5313958 C14.0845833,29.5313958 10.5714583,28.4186875 10.5729167,26.2005625 L10.5729167,7.47410417 C10.5729167,6.36722917 11.4697917,5.46889583 12.578125,5.46889583 L22.6041667,5.46889583 C23.7125,5.46889583 24.609375,6.36722917 24.609375,7.47410417 L24.609375,26.2005625 Z M17.5,0.000145833333 C7.835625,0.000145833333 0,7.83577083 0,17.5001458 C0,27.1645208 7.835625,35.0001458 17.5,35.0001458 C27.164375,35.0001458 35,27.1645208 35,17.5001458 C35,7.83577083 27.164375,0.000145833333 17.5,0.000145833333 L17.5,0.000145833333 Z" id="Fill-4" fill="#AAABB2" mask="url(#mask-2)"></path>
                </g>
            </g>
        </g>
    </g>
</svg>