<svg xmlns="http://www.w3.org/2000/svg" viewBox="0 0 100 100"><path fill="#343536" d="M43.08 66.14C40.456 79.907 37.25 93.106 27.75 100c-2.932-20.808 4.307-36.435 7.668-53.026-5.73-9.646.69-29.062 12.777-24.277 14.873 5.885-12.88 35.865 5.75 39.61 19.453 3.91 27.395-33.75 15.332-46-17.428-17.683-50.733-.402-46.637 24.917.996 6.19 7.39 8.068 2.555 16.61-11.154-2.472-14.484-11.27-14.055-23 .69-19.196 17.25-32.638 33.86-34.497 21.006-2.352 40.72 7.71 43.443 27.47 3.067 22.304-9.48 46.46-31.942 44.722-6.088-.474-8.645-3.49-13.417-6.39z"></path></svg>