<svg width="70" height="70" viewBox="0 0 70 70" xmlns="http://www.w3.org/2000/svg" xmlns:xlink="http://www.w3.org/1999/xlink"><title>icon-video-play</title><defs><path id="a" d="M70 35v35H0V0h70z"/></defs><g fill="none" fill-rule="evenodd"><path d="M35 2.917C52.691 2.917 67.083 17.31 67.083 35c0 17.69-14.392 32.084-32.083 32.084S2.917 52.69 2.917 35C2.917 17.31 17.309 2.917 35 2.917" fill-opacity=".35" fill="#000"/><mask id="b" fill="#fff"><use xlink:href="#a"/></mask><path d="M26.25 49.583V20.416l26.25 15.01-26.25 14.157zM35 0C15.671 0 0 15.671 0 35c0 19.328 15.671 35 35 35s35-15.672 35-35C70 15.671 54.329 0 35 0zm0 2.916C52.691 2.916 67.083 17.31 67.083 35c0 17.69-14.392 32.083-32.083 32.083S2.917 52.69 2.917 35C2.917 17.31 17.309 2.916 35 2.916z" fill="#FFF" mask="url(#b)"/></g></svg>