<?xml version="1.0" encoding="UTF-8" standalone="no"?>
<svg width="112px" height="19px" viewBox="0 0 112 19" version="1.1" xmlns="http://www.w3.org/2000/svg" xmlns:xlink="http://www.w3.org/1999/xlink">
    <!-- Generator: Sketch 3.7.2 (28276) - http://www.bohemiancoding.com/sketch -->
    <title>icon-stars-full</title>
    <desc>Created with Sketch.</desc>
    <defs></defs>
    <g id="Page-1" stroke="none" stroke-width="1" fill="none" fill-rule="evenodd">
        <g fill="#FFC000">
            <polygon id="Fill-1" points="9.9999 0.0002 6.9439 6.3062 -0.0001 7.2662 5.0539 12.1222 3.8199 19.0212 9.9999 15.7162 16.1799 19.0212 14.9459 12.1222 19.9999 7.2662 13.0559 6.3062"></polygon>
            <polygon id="Fill-2" points="33.0003 0.0002 29.9433 6.3062 23.0003 7.2662 28.0533 12.1222 26.8193 19.0212 33.0003 15.7162 39.1793 19.0212 37.9463 12.1222 43.0003 7.2662 36.0563 6.3062"></polygon>
            <polygon id="Fill-3" points="55.9998 0.0002 52.9438 6.3062 45.9998 7.2662 51.0538 12.1222 49.8198 19.0212 55.9998 15.7162 62.1798 19.0212 60.9468 12.1222 65.9998 7.2662 59.0568 6.3062"></polygon>
            <polygon id="Fill-4" points="79.0002 0.0002 75.9432 6.3062 69.0002 7.2662 74.0532 12.1222 72.8192 19.0212 79.0002 15.7162 85.1792 19.0212 83.9462 12.1222 89.0002 7.2662 82.0562 6.3062"></polygon>
            <polygon id="Fill-5" points="101.9997 0.0002 98.9437 6.3062 91.9997 7.2662 97.0537 12.1222 95.8197 19.0212 101.9997 15.7162 108.1797 19.0212 106.9467 12.1222 111.9997 7.2662 105.0567 6.3062"></polygon>
        </g>
    </g>
</svg>