<?xml version="1.0" encoding="UTF-8" standalone="no"?>
<svg width="220px" height="35px" viewBox="0 0 220 35" version="1.1" xmlns="http://www.w3.org/2000/svg" xmlns:xlink="http://www.w3.org/1999/xlink">
    <!-- Generator: Sketch 3.7.2 (28276) - http://www.bohemiancoding.com/sketch -->
    <title>logo-ccf-white-text</title>
    <desc>Created with Sketch.</desc>
    <defs></defs>
    <g id="Page-1" stroke="none" stroke-width="1" fill="none" fill-rule="evenodd">
        <g id="logo-ccf-white-text">
            <g id="Group">
                <path d="M26.6,10.2 L26.6,16.1 L31.8,16.1 C33.2,16.1 34.3,15 34.3,13.6 L34.3,2.5 C34.3,1.1 33.2,0 31.8,0 L20.7,0 C19.3,0 18.2,1.1 18.2,2.5 L18.2,7.7 L24.1,7.7 C25.5,7.7 26.6,8.9 26.6,10.2 L26.6,10.2 Z M7.7,10.2 L7.7,16.1 L2.5,16.1 C1.1,16.1 0,15 0,13.6 L0,2.5 C0,1.1 1.1,0 2.5,0 L13.6,0 C15,0 16.1,1.1 16.1,2.5 L16.1,7.7 L10.2,7.7 C8.9,7.7 7.7,8.9 7.7,10.2 L7.7,10.2 Z" id="Shape" fill="#085FA9"></path>
                <path d="M7.7,24.1 L7.7,18.2 L2.5,18.2 C1.1,18.2 0,19.3 0,20.7 L0,31.8 C0,33.2 1.1,34.3 2.5,34.3 L13.6,34.3 C15,34.3 16.1,33.2 16.1,31.8 L16.1,26.6 L10.2,26.6 C8.9,26.6 7.7,25.5 7.7,24.1 L7.7,24.1 Z M26.6,24.1 L26.6,18.2 L31.8,18.2 C33.2,18.2 34.3,19.3 34.3,20.7 L34.3,31.8 C34.3,33.2 33.2,34.3 31.8,34.3 L20.7,34.3 C19.3,34.3 18.2,33.2 18.2,31.8 L18.2,26.6 L24.1,26.6 C25.5,26.6 26.6,25.5 26.6,24.1 L26.6,24.1 Z" id="Shape" fill="#247C3E"></path>
                <polygon id="Shape" fill="#FFFFFF" points="94.2 25.9 94.3 25.9 94.2 25.8"></polygon>
                <path d="M56.9,20.7 C56.3,24.6 53.7,26.9 49.8,26.9 C44.4,26.9 42,21.9 42,17.2 C42,12.4 44.4,7.5 49.8,7.5 C53.7,7.5 56.3,9.7 56.9,13.7 L53.3,14.2 C52.9,12.2 52.1,10.5 49.8,10.5 C46.6,10.5 45.9,14.8 45.9,17.2 C45.9,19.6 46.6,23.9 49.8,23.9 C52.1,23.9 53,22.1 53.3,20.2 L56.9,20.7 L56.9,20.7 Z" id="Shape" fill="#FFFFFF"></path>
                <rect id="Rectangle-path" fill="#FFFFFF" x="59.1" y="7.7" width="3.6" height="18.9"></rect>
                <path d="M73.3,18.4 C73.3,16.9 72.7,15.4 71,15.4 C69.4,15.4 68.7,17 68.7,18.4 L73.3,18.4 L73.3,18.4 Z M68.5,20.7 C68.4,22.3 69.3,24.3 71.2,24.3 C72.3,24.3 73.1,23.6 73.5,22.3 L76.9,22.7 C76.1,25.4 73.5,26.9 71,26.9 C67,26.9 65,23.4 65,19.8 C65,16.2 67,12.7 71,12.7 C74.4,12.7 77,14.3 76.9,20.6 L68.5,20.6 L68.5,20.7 Z" id="Shape" fill="#FFFFFF"></path>
                <path d="M98.8,18.4 C98.8,16.9 98.2,15.4 96.5,15.4 C94.9,15.4 94.2,17 94.2,18.4 L98.8,18.4 L98.8,18.4 Z M94,20.7 C93.9,22.3 94.8,24.3 96.7,24.3 C97.8,24.3 98.6,23.6 99,22.3 L102.4,22.7 C101.6,25.4 99,26.9 96.5,26.9 C92.5,26.9 90.5,23.4 90.5,19.8 C90.5,16.2 92.5,12.7 96.5,12.7 C99.9,12.7 102.5,14.3 102.4,20.6 L94,20.6 L94,20.7 Z" id="Shape" fill="#FFFFFF"></path>
                <polygon id="Shape" fill="#FFFFFF" points="85.7 26.6 81.9 26.6 77.7 13 81.4 13 83.8 23 83.9 23 86.2 13 89.8 13"></polygon>
                <rect id="Rectangle-path" fill="#FFFFFF" x="104.7" y="7.7" width="3.6" height="18.9"></rect>
                <path d="M118.4,20.4 C116.9,20.7 114,20.8 114,22.8 C114,23.6 114.4,24.3 115.2,24.3 C116.7,24.3 117.7,23.4 118.4,22.5 L118.4,20.4 L118.4,20.4 Z M118.6,25.3 C117.3,26.2 116.4,26.8 114.7,26.8 C112.3,26.8 110.4,25.2 110.4,22.8 C110.4,19 115.4,18.2 118.3,17.9 C118.5,16 117.9,15.3 116.6,15.3 C115.5,15.3 114.6,15.8 114.4,17 L111,16.5 C111.8,13.6 113.7,12.7 116.6,12.7 C120.3,12.7 121.9,14.4 121.9,17 L121.9,23.7 C121.9,24.7 121.9,25.6 122.4,26.5 L119,26.5 C118.7,26 118.6,25.3 118.6,25.3 L118.6,25.3 Z" id="Shape" fill="#FFFFFF"></path>
                <path d="M128.5,14.4 C129.6,13.5 131,12.7 132.6,12.7 C134.1,12.7 136.2,13.6 136.2,16.9 L136.2,26.5 L132.6,26.5 L132.6,18.3 C132.6,17.2 132.7,15.5 131.1,15.5 C130.1,15.5 129.2,16.3 128.6,17 L128.6,26.5 L125,26.5 L125,13 L128.6,13 L128.6,14.4 L128.5,14.4 Z" id="Shape" fill="#FFFFFF"></path>
                <path d="M173.1,20.7 C172.5,24.6 169.9,26.9 166,26.9 C160.6,26.9 158.2,21.9 158.2,17.2 C158.2,12.4 160.6,7.5 166,7.5 C169.9,7.5 172.5,9.7 173.1,13.7 L169.5,14.2 C169.1,12.2 168.3,10.5 166,10.5 C162.8,10.5 162.1,14.8 162.1,17.2 C162.1,19.6 162.8,23.9 166,23.9 C168.3,23.9 169.2,22.1 169.5,20.2 L173.1,20.7 L173.1,20.7 Z" id="Shape" fill="#FFFFFF"></path>
                <rect id="Rectangle-path" fill="#FFFFFF" x="175.3" y="7.7" width="3.6" height="18.9"></rect>
                <path d="M185.5,26.6 L181.9,26.6 L181.9,13 L185.5,13 L185.5,26.6 L185.5,26.6 Z M185.5,11 L181.9,11 L181.9,7.7 L185.5,7.7 L185.5,11 L185.5,11 Z" id="Shape" fill="#FFFFFF"></path>
                <path d="M192,14.4 C193.1,13.5 194.5,12.7 196,12.7 C197.5,12.7 199.6,13.6 199.6,16.9 L199.6,26.5 L196,26.5 L196,18.3 C196,17.2 196.1,15.5 194.5,15.5 C193.5,15.5 192.6,16.3 192,17 L192,26.5 L188.4,26.5 L188.4,13 L192,13 L192,14.4 L192,14.4 Z" id="Shape" fill="#FFFFFF"></path>
                <path d="M206.1,26.6 L202.5,26.6 L202.5,13 L206.1,13 L206.1,26.6 L206.1,26.6 Z M206.1,11 L202.5,11 L202.5,7.7 L206.1,7.7 L206.1,11 L206.1,11 Z" id="Shape" fill="#FFFFFF"></path>
                <path d="M220,22.2 C219.4,25 217.4,26.9 214.3,26.9 C210.3,26.9 208.3,23.4 208.3,19.8 C208.3,16.2 210.3,12.7 214.3,12.7 C217.3,12.7 219.4,14.5 220,17.4 L216.7,17.8 C216.5,16.7 216.1,15.3 214.3,15.3 C212.4,15.3 212,18 212,19.7 C212,21.4 212.3,24.1 214.3,24.1 C216.1,24.1 216.4,22.9 216.7,21.6 L220,22.2 L220,22.2 Z" id="Shape" fill="#FFFFFF"></path>
                <path d="M146.9,22.3 C146.3,23.1 145.6,23.9 144.6,23.9 C142.4,23.9 142.1,21.3 142.1,19.7 C142.1,18.2 142.5,15.7 144.5,15.7 C145.5,15.7 146.3,16.4 146.9,17.2 L146.9,22.3 L146.9,22.3 Z M150.5,24.2 L150.5,7.7 L146.9,7.7 L146.9,14.3 C145.9,13.4 145,12.7 143.6,12.7 C141.6,12.7 138.6,14.4 138.6,19.4 C138.6,25.1 141.1,26.8 143.9,26.8 C145.4,26.8 146.2,26.3 147.3,25.3 C147.3,25.3 147.4,26 147.7,26.5 L151,26.5 C150.6,25.8 150.5,25 150.5,24.2 L150.5,24.2 Z" id="Shape" fill="#FFFFFF"></path>
            </g>
        </g>
    </g>
</svg>