<?xml version="1.0" encoding="utf-8"?>
<!-- Generator: Adobe Illustrator 16.0.4, SVG Export Plug-In . SVG Version: 6.00 Build 0)  -->
<!DOCTYPE svg PUBLIC "-//W3C//DTD SVG 1.1//EN" "http://www.w3.org/Graphics/SVG/1.1/DTD/svg11.dtd">
<svg version="1.1" id="Layer_2" xmlns="http://www.w3.org/2000/svg" xmlns:xlink="http://www.w3.org/1999/xlink" x="0px" y="0px"
	 width="513px" height="119px" viewBox="0 0 513 119" enable-background="new 0 0 513 119" xml:space="preserve">
<g>
	<g>
		<g>
			<g>
				<polygon fill="#4b4b45" points="220.113,59.858 220.167,59.832 220.113,59.616 				"/>
				<path fill="#4b4b45" d="M133.294,47.566c-1.355,9.031-7.396,14.507-16.544,14.507c-12.532,0-18.12-11.573-18.12-22.64
					c0-11.062,5.588-22.637,18.12-22.637c9.032,0,15.074,5.193,16.544,14.507l-8.357,1.13c-0.846-4.573-2.878-8.694-8.187-8.694
					c-7.562,0-9.087,10.048-9.087,15.694c0,5.651,1.526,15.693,9.087,15.693c5.253,0,7.341-4.118,8.187-8.634L133.294,47.566z"/>
				<rect x="138.355" y="17.473" fill="#4b4b45" width="8.357" height="43.921"/>
				<path fill="#4b4b45" d="M171.3,42.313c0-3.559-1.411-7.057-5.418-7.057c-3.784,0-5.308,3.669-5.421,7.057H171.3z
					 M160.179,47.566c-0.284,3.839,1.925,8.354,6.211,8.354c2.659,0,4.376-1.738,5.265-4.58l7.83,0.911
					c-1.806,6.267-7.845,9.822-13.83,9.822c-9.202,0-13.887-8.13-13.887-16.484c0-8.414,4.627-16.485,13.886-16.485
					c7.959,0,14.056,3.782,13.831,18.463H160.179z"/>
				<path fill="#4b4b45" d="M230.716,42.313c0-3.559-1.412-7.057-5.419-7.057c-3.785,0-5.308,3.669-5.42,7.057H230.716z
					 M219.594,47.566c-0.282,3.839,1.925,8.354,6.211,8.354c2.661,0,4.377-1.738,5.265-4.58l7.83,0.911
					c-1.806,6.267-7.845,9.822-13.83,9.822c-9.202,0-13.887-8.13-13.887-16.484c0-8.414,4.626-16.485,13.887-16.485
					c7.958,0,14.055,3.782,13.83,18.463H219.594z"/>
				<polygon fill="#4b4b45" points="200.197,61.394 191.39,61.394 181.567,29.781 190.318,29.781 195.849,53.134 195.962,53.134 
					201.382,29.781 209.738,29.781 				"/>
				<rect x="244.524" y="17.473" fill="#4b4b45" width="8.357" height="43.921"/>
				<path fill="#4b4b45" d="M276.292,46.943c-3.442,0.623-10.274,0.961-10.274,5.589c0,1.864,0.903,3.388,2.878,3.388
					c3.445,0,5.813-2.034,7.396-4.12V46.943z M276.794,58.486c-3.109,2.204-5.018,3.587-9.025,3.587
					c-5.478,0-9.936-3.728-9.936-9.371c0-8.92,11.741-10.727,18.458-11.462c0.565-4.399-0.905-5.983-4.006-5.983
					c-2.655,0-4.576,1.184-5.026,3.951l-8.015-1.24c1.86-6.719,6.378-8.864,12.981-8.864c8.525,0,12.42,4.062,12.42,9.992v15.696
					c0,2.259,0.115,4.517,1.129,6.602h-8.036C277.04,59.957,276.794,58.486,276.794,58.486z"/>
				<path fill="#4b4b45" d="M299.766,33.057c2.652-2.202,5.925-3.953,9.429-3.953c3.44,0,8.296,2.093,8.296,9.878v22.412h-8.358
					V42.371c0-2.545,0.174-6.549-3.441-6.549c-2.43,0-4.347,1.747-5.925,3.442v22.129h-8.357V29.781h8.357V33.057z"/>
				<path fill="#4b4b45" d="M403.695,47.566c-1.357,9.031-7.395,14.507-16.541,14.507c-12.534,0-18.119-11.573-18.119-22.64
					c0-11.062,5.584-22.637,18.119-22.637c9.033,0,15.075,5.193,16.541,14.507l-8.354,1.13c-0.85-4.573-2.883-8.694-8.187-8.694
					c-7.564,0-9.09,10.048-9.09,15.694c0,5.651,1.526,15.693,9.09,15.693c5.25,0,7.337-4.118,8.187-8.634L403.695,47.566z"/>
				<rect x="408.768" y="17.473" fill="#4b4b45" width="8.354" height="43.921"/>
				<path fill="#4b4b45" d="M432.478,61.394h-8.358V29.781h8.358V61.394z M432.478,25.152h-8.358v-7.68h8.358V25.152z"/>
				<path fill="#4b4b45" d="M447.661,33.057c2.653-2.202,5.929-3.953,9.425-3.953c3.446,0,8.305,2.093,8.305,9.878v22.412h-8.36
					V42.371c0-2.545,0.173-6.549-3.441-6.549c-2.428,0-4.344,1.747-5.929,3.442v22.129h-8.355V29.781h8.355V33.057z"/>
				<path fill="#4b4b45" d="M480.629,61.394h-8.357V29.781h8.357V61.394z M480.629,25.152h-8.357v-7.68h8.357V25.152z"/>
				<path fill="#4b4b45" d="M512.878,51.177c-1.355,6.606-6.154,10.896-13.211,10.896c-9.201,0-13.885-8.13-13.885-16.484
					c0-8.414,4.628-16.485,13.885-16.485c7.057,0,11.856,4.289,13.211,10.895l-7.583,1.022c-0.565-2.553-1.396-5.764-5.627-5.764
					c-4.516,0-5.308,6.382-5.308,10.332c0,3.952,0.792,10.331,5.308,10.331c4.232,0,4.837-2.896,5.595-5.733L512.878,51.177z"/>
				<path fill="#4b4b45" d="M342.654,51.35c-1.292,1.974-2.929,3.614-5.415,3.614c-5.023,0-5.757-6.101-5.757-9.879
					c0-3.503,0.959-9.377,5.586-9.377c2.43,0,4.123,1.693,5.585,3.444V51.35z M351.014,55.764V17.473h-8.359v15.413
					c-2.366-2.092-4.397-3.782-7.786-3.782c-4.572,0-11.573,4.009-11.573,15.696c0,13.323,5.868,17.273,12.251,17.273
					c3.5,0,5.384-1.214,7.924-3.475c0,0,0.255,1.525,0.931,2.795h7.727C351.257,59.606,351.054,57.697,351.014,55.764z"/>
			</g>
			<path fill="#0078bf" d="M19,24.479V37H5.479C2.192,37,0,34.791,0,31.521V5.479C0,2.191,2.209,0,5.479,0h26.041
				C34.808,0,37,2.191,37,5.479V19H24.479C21.191,19,19,21.192,19,24.479z"/>
			<path fill="#0078bf" d="M54.521,19H42V5.479C42,2.191,44.209,0,47.479,0h26.041C76.809,0,79,2.209,79,5.479v26.041
				C79,34.809,76.809,37,73.521,37H60V24.479C60,21.191,57.808,19,54.521,19z"/>
			<path fill="#00843d" d="M60,55.521V43h13.521C76.808,43,79,45.209,79,48.479v26.041C79,77.809,76.791,80,73.521,80H47.479
				C44.192,80,42,77.809,42,74.521V61h12.521C57.809,61,60,58.808,60,55.521z"/>
			<path fill="#00843d" d="M24.479,61H37v13.521C37,77.809,34.791,80,31.521,80H5.479C2.191,80,0,77.791,0,74.521V48.479
				C0,45.191,2.191,43,5.479,43H19v12.521C19,58.809,21.192,61,24.479,61z"/>
		</g>
	</g>
	<g>
		<g>
			<g>
				<path fill="#4b4b45" d="M120.645,94.296h-12.314v6.984h9.498v4.955h-9.498v12.313h-5.855V89.341h18.169V94.296z"/>
				<path fill="#4b4b45" d="M129.129,118.549h-5.557V89.341h5.557V118.549z"/>
				<path fill="#4b4b45" d="M132.62,108.037c0-5.593,3.079-10.963,9.235-10.963c6.158,0,9.235,5.37,9.235,10.963
					c0,5.556-3.115,10.963-9.235,10.963C135.736,119,132.62,113.593,132.62,108.037z M145.385,108.037
					c0-2.628-0.526-6.871-3.53-6.871c-3.003,0-3.528,4.243-3.528,6.871c0,2.627,0.525,6.87,3.528,6.87
					C144.859,114.907,145.385,110.664,145.385,108.037z"/>
				<path fill="#4b4b45" d="M160.139,101.205c2.139-2.517,3.867-4.131,6.42-4.131h1.05v5.557c-0.524-0.112-1.05-0.225-1.615-0.225
					c-1.425,0-5.855,1.314-5.855,6.908v9.234h-5.557V97.525h5.557V101.205z"/>
				<path fill="#4b4b45" d="M175.831,94.446h-5.556v-5.105h5.556V94.446z M175.831,118.549h-5.556V97.525h5.556V118.549z"/>
				<path fill="#4b4b45" d="M192.798,116.784c-1.688,1.502-3.001,2.216-5.331,2.216c-4.242,0-8.146-2.629-8.146-11.488
					c0-7.771,4.655-10.438,7.697-10.438c2.252,0,3.603,1.127,5.181,2.517v-10.25h5.556v29.208h-4.468L192.798,116.784z
					 M188.481,101.467c-3.077,0-3.716,3.905-3.716,6.232c0,2.516,0.489,6.57,3.83,6.57c1.651,0,2.739-1.089,3.604-2.402v-8.109
					C191.222,102.594,190.095,101.467,188.481,101.467z"/>
				<path fill="#4C4B46" d="M213.823,116.635c-2.065,1.464-3.304,2.365-5.971,2.365c-3.641,0-6.606-2.479-6.606-6.232
					c0-5.931,7.808-7.134,12.276-7.621c0.376-2.928-0.601-3.98-2.667-3.98c-1.762,0-3.04,0.789-3.34,2.628l-5.331-0.824
					c1.239-4.468,4.243-5.896,8.635-5.896c5.668,0,8.259,2.703,8.259,6.646v10.436c0,1.502,0.075,3.004,0.751,4.393h-5.406
					L213.823,116.635z M213.522,108.938c-2.291,0.412-6.833,0.638-6.833,3.716c0,1.239,0.601,2.253,1.915,2.253
					c2.291,0,3.867-1.351,4.918-2.74V108.938z"/>
			</g>
		</g>
	</g>
</g>
</svg>
