<?xml version="1.0" encoding="utf-8"?>
<!-- Generator: Adobe Illustrator 16.0.4, SVG Export Plug-In . SVG Version: 6.00 Build 0)  -->
<!DOCTYPE svg PUBLIC "-//W3C//DTD SVG 1.1//EN" "http://www.w3.org/Graphics/SVG/1.1/DTD/svg11.dtd">
<svg version="1.1" id="Layer_1" xmlns="http://www.w3.org/2000/svg" xmlns:xlink="http://www.w3.org/1999/xlink" x="0px" y="0px"
	 width="772.236px" height="79.2px" viewBox="0 0 772.236 79.2" enable-background="new 0 0 772.236 79.2" xml:space="preserve">
<g>
	<path fill="#0078bf" d="M0.453,45.5l0.484,0.194c-0.011,0.021-0.007,0.084,0.025,0.099c0.051,0.021,0.095,0.068,0.138,0.021
		l0.023-0.053c0.186,0.382,0.925,0.386,1.102,0.8c0.385,0.056,0.286,0.385,0.635,0.517l-0.034,0.081
		c0.47,0.145,0.566,0.527,0.973,0.747c0.003,0.226,0.236,0.335,0.491,0.409l-0.014,0.047c0.527,0.303,1.117,0.753,1.724,0.706
		c0.014,0.125,0.5,0.195,0.646,0.365l0.083,0.038c0.074,0.216,0.167,0.375,0.35,0.538c0.283,0.629,0.949,1.043,1.602,1.418
		c0.41,0.125,0.287,0.451,0.675,0.56c0.223,0.223,0.391,0.502,0.816,0.604c0.046,0.265,0.435,0.293,0.343,0.623
		c0.016,0.194,0.268,0.167,0.419,0.254c0.132-0.191,0.433,0.007,0.486-0.3c0.183-0.089,0.501,0.064,0.636-0.063l0.167,0.063
		c-0.048,0.038,0.023,0.102,0.073,0.117c0.06-0.007,0.097,0.07,0.117,0.014l0.021-0.053c0.258-0.021,0.631,0.212,0.806,0.074
		l0.422,0.151l-0.026,0.089c0.155,0.06,0.452,0.268,0.59,0.138c0.463,0.145,0.9,0.223,1.389,0.377l0.029-0.053l0.208,0.085
		l-0.019,0.06c0.255,0.127,0.67,0.411,0.893,0.22c0.364,0.166,0.59-0.085,0.958,0.06c0.021-0.109,0.191,0.078,0.26-0.017
		c0.279-0.079,0.428-0.389,0.651-0.495c0.4,0.074,0.587-0.414,0.942-0.517c0.037-0.112,0.217-0.006,0.265-0.141
		c0.193-0.024,0.414-0.272,0.345-0.488l-0.431-0.13c0.12-0.238,0.101-0.683,0.355-0.845c-0.009-0.146,0.143-0.412,0.256-0.6
		c0.119-0.018,0.216-0.088,0.294-0.219c-0.146-0.167,0.06-0.236,0.107-0.393c0.126-0.032,0.175-0.169,0.25-0.279
		c0.329-0.135,0.604-0.371,0.769-0.704c0.073-0.13,0.391,0.092,0.401-0.173c0.198,0.028,0.421,0.092,0.626,0.061
		c-0.067-0.096-0.03-0.379,0.07-0.481c0.029,0.007,0.114,0.042,0.148-0.003l0.005-0.056c0.35,0.187,0.376-0.212,0.607-0.177
		c0.042-0.283,0.381-0.236,0.418-0.52c0.193-0.148,0.189-0.491,0.412-0.64c0.072-0.304,0.541-0.148,0.491-0.591
		c0.271,0.12,0.092-0.247,0.271-0.279c0.265-0.018,0.156-0.471,0.246-0.693l-0.142-0.021c0.173-0.205-0.018-0.315,0.164-0.548
		c0.069-0.077,0.092-0.25,0.288-0.194c0-0.198,0.156-0.491,0.009-0.64c0.235-0.025,0.186-0.492,0.398-0.577
		c0.154-0.24,0.032-0.428-0.025-0.615l0.145-0.035c0.049-0.113-0.035-0.148-0.057-0.212l-0.055-0.011
		c0.175-0.406-0.157-0.544-0.013-0.93H26.1c0.035-0.398-0.065-0.76,0.056-1.212c-0.155-0.106-0.173-0.23-0.268-0.329
		c-0.004-0.173,0.173-0.446-0.046-0.491c0.076-0.11,0.193-0.124,0.159-0.305c0.138,0.046,0.103-0.106,0.138-0.151
		c0.044-0.082-0.034-0.177-0.127-0.131l-0.085-0.015c0.025-0.145,0.067-0.254,0.025-0.374l-0.063-0.015l0.067-0.42l0.057,0.003
		c0.223-0.548,0.081-1.521,0.502-1.662c-0.005-0.145,0.067-0.251,0.207-0.205c0-0.202,0.173-0.233,0.114-0.445
		c0.03,0.063,0.196-0.142,0.061-0.219l0.163-0.063c-0.109-0.453,0.016-0.548,0.083-1.206c0.179,0,0.05-0.343,0.195-0.375
		c-0.004-0.149,0.312-0.134,0.097-0.251c0.066-0.078,0.23-0.021,0.23-0.195l0.01-0.095c0.212-0.021,0.078-0.361,0.212-0.427
		c0.265-0.049,0.29-0.393,0.533-0.446c0.055-0.049,0.044-0.142,0.055-0.198c0.059-0.021,0.188,0.088,0.2-0.025l0.007-0.06
		c0.084,0.007,0.199,0,0.159-0.1l0.016-0.081c0.059-0.018,0.11,0.024,0.141-0.003l0.016-0.089c0.271-0.074,0.683,0.131,0.93,0.015
		c0.184,0.261,0.297-0.096,0.518-0.007c-0.021,0.141,0.086,0.155,0.214,0.166c0.251,0.046,0.417-0.102,0.677-0.095
		c0.249-0.142,0.476-0.339,0.803-0.354c0.182-0.283,0.733,0.113,0.942-0.145c0.329-0.046,0.767,0.131,1.004-0.092l0.17,0.024
		c0.028,0.173,0.306,0.103,0.397,0.202c0.15,0.025,0.239,0,0.31-0.099c0.506,0.099,1.127,0.014,1.681,0.244
		c0.09-0.254,0.528,0.131,0.599-0.18c0.29-0.191,0.679,0.361,0.795-0.082c0.244-0.085,0.707,0.117,0.863-0.145
		c0.065-0.018,0.138,0.025,0.202,0l0.014-0.082l0.168,0.011c-0.044,0.096,0.041,0.141,0.094,0.145c0.066,0.003,0.182,0,0.13-0.1
		l0.01-0.056l0.548-0.014l0.016-0.053l0.504,0.074c-0.004,0.025-0.011,0.089,0.021,0.092c0.073-0.134,0.318-0.017,0.464-0.024
		c-0.009,0.032-0.01,0.088,0.015,0.096c0.127-0.099,0.447,0.088,0.675,0.145c0.394,0.06,0.557,0.35,1.017,0.386
		c0.124-0.018,0.042,0.261,0.24,0.151l0.011-0.06c0.148-0.036,0.067,0.099,0.148,0.134c0.316,0.05,0.559,0.135,0.771,0.287
		l0.095-0.071c0,0.028-0.009,0.085,0.046,0.089c0.035,0.011,0.082,0.042,0.117-0.007l0.007-0.056
		c0.258,0.268,0.839,0.257,1.154,0.456l0.686,0.095l-0.001,0.021c0.313,0.053,0.742,0.258,1.202,0.269l-0.007,0.057
		c0.156,0.106,0.491,0.032,0.548,0.194l0.396,0.089c-0.028,0.198,0.279,0.063,0.312,0.216c0.352,0.251,0.921,0.304,1.195,0.632
		l0.192,0.039c-0.025,0.159,0.219,0.074,0.292,0.18c0.306,0.304,0.91,0.304,1.356,0.459c0.057,0.174,0.412,0.106,0.289,0.382
		c0.127,0.167,0.481,0.127,0.695,0.188c-0.044,0.166,0.202,0.024,0.212,0.169c0.257,0.039,0.25,0.276,0.501,0.336
		c0.021,0.269,0.468,0.155,0.424,0.47c0.208,0.205,0.438,0.41,0.481,0.7c0.131,0.106,0.283,0.247,0.343,0.431l0.061,0.007
		c-0.067,0.255,0.342,0.219,0.283,0.474c0.014,0.06,0.078,0.042,0.134,0.049c-0.039,0.294,0.276,0.329,0.233,0.587
		c0.529-0.074,0.146,0.565,0.649,0.52c0.011,0.148,0.182,0.148,0.228,0.248c0.088,0.184,0.212,0.314,0.372,0.42
		c-0.04,0.061-0.018,0.146,0.07,0.135c0.007,0.318,0.526,0.364,0.442,0.753c0.382,0.173,0.219,0.668,0.631,0.788
		c-0.069,0.336,0.387,0.198,0.408,0.467c0.345,0.018,0.385,0.318,0.499,0.527c-0.026,0-0.057-0.011-0.088,0.021
		c-0.042,0.109,0.106,0.074,0.12,0.166H58.6c-0.12,0.219,0.182,0.12,0.167,0.233c0.216,0.12,0.053,0.446,0.357,0.48
		c-0.131,0.184,0.165,0.088,0.177,0.233c0.251,0.265,0.542,0.449,0.898,0.615c0.364,0.117,0.428,0.474,0.916,0.424
		c0.118,0.109,0.261,0.215,0.386,0.342c0.024-0.027,0.022-0.067,0.053-0.091c0.154-0.121,0.334-0.138,0.505-0.103
		c-0.021-0.432,0.191-0.777,0.379-1.085c0.356-0.029,0.229-0.577,0.671-0.57c-0.127-0.368,0.276-0.145,0.258-0.435
		c0.191,0.117,0.191-0.078,0.289-0.152c0.152-0.275,0.583-0.071,0.684-0.371c0.03-0.195,0.366,0.085,0.375-0.148l0.104,0.011
		c0.077-0.096,0.106-0.272,0.063-0.393l-0.063-0.004c0.18,0.026,0.092-0.191,0.13-0.307c0.088,0.046,0.15-0.003,0.131-0.099
		c0.041-0.251,0.421-0.053,0.433-0.372c0.145-0.032,0.271-0.251,0.444-0.283l0.011-0.048c0.173-0.008,0.283-0.135,0.385-0.238
		c0.3-0.071,0.541-0.162,0.748-0.393c0.21-0.082,0.433-0.194,0.673-0.247c0.417,0.113,0.555-0.209,0.948-0.127
		c0.209-0.255,0.582-0.209,0.793-0.457c0.561,0.131,0.57-0.559,1.119-0.361c0.092-0.223,0.341-0.155,0.58-0.184
		c0.113-0.19,0.537,0.049,0.689-0.131c0.629,0.032,1.007,0,1.613,0.205c0.497,0.208,0.461-0.371,0.582-0.644
		c-0.034-0.151,0.131-0.074,0.174-0.151c0.048-0.195,0.087-0.417,0.262-0.417c0.044-0.146,0.263-0.061,0.358-0.096
		c0.144-0.163,0.331-0.308,0.534-0.308c-0.011-0.343,0.315-0.364,0.53-0.442c0.212-0.085,0.131-0.502,0.414-0.459
		c0.179-0.237,0.306-0.516,0.562-0.675c0.003-0.163,1.683-0.191,2.266-0.357V14.596h-0.004V5.811c0-3.21-2.598-5.811-5.804-5.811
		h-8.786H47.784h-0.116c0.131,0.067,0.295,0.11,0.309,0.283c0.432,0.032,0.645,0.349,0.808,0.625
		c-0.181,0.42,0.35,0.382,0.236,0.768c0.183-0.025,0.124,0.162,0.262,0.183c0.127,0.131-0.152,0.53,0.124,0.57
		c0.138,0.077-0.117,0.414,0.142,0.424c-0.057,0.194-0.092,0.657,0.086,0.859l-0.101,0.067c0.287,0.216-0.152,0.845,0.134,1.057
		c0.198,0.269-0.033,0.838-0.033,1.071c0.086,0.417-0.345,0.76-0.038,1.068c-0.261,0.393-0.194,1.135-0.406,1.598
		c-0.103,0.301,0.044,0.467-0.014,0.739l0.085,0.011c-0.034,0.41-0.152,0.823,0.042,1.085l-0.05,0.368l-0.056-0.003
		c-0.007,0.6-0.499,1-0.301,1.456c-0.163,0.124-0.046,0.523-0.254,0.583c0.026,0.029-0.011,0.106,0.005,0.135l0.086,0.011
		c0.124,0.371-0.244,0.696-0.096,1.057c-0.18,0.071,0.039,0.152-0.039,0.294l-0.025-0.004c0.087,0.184-0.235,0.371-0.064,0.598
		c-0.153,0.063-0.029,0.399-0.236,0.427c0.083,0.067,0.106,0.127,0.078,0.244l-0.081-0.018c-0.086,0.202-0.032,0.499-0.17,0.615
		l0.057,0.042c-0.051,0.11-0.025,0.544-0.168,0.735c-0.048,0.308-0.271,0.445-0.486,0.526l-0.113-0.007
		c0.007-0.028,0.014-0.092-0.042-0.102l-0.055-0.004c0.118-0.216-0.129-0.279-0.242-0.343c-0.11-0.024-0.212,0.05-0.206,0.199
		c-0.021,0.169-0.295,0.06-0.254,0.364c-0.111,0.014-0.159,0.127-0.325,0.071c0.116-0.244-0.096-0.336-0.302-0.336L45.882,17.3
		c0.074-0.099-0.033-0.173-0.145-0.159c-0.16,0.066-0.187,0.265-0.436,0.166c-0.096,0.24-0.467-0.007-0.627,0.11
		c-0.288-0.003-0.688-0.241-0.871,0.021c-0.249-0.064-0.734-0.163-1.036-0.064l-0.003,0.064c0.011-0.269-0.474-0.152-0.432-0.442
		c0.016,0.082,0.119,0.057,0.195,0.085l0.021-0.173l0.032,0.01c-0.015,0.057-0.021,0.113,0.035,0.12
		c0.06,0.011,0.138,0.018,0.12-0.039l0.018-0.117c-0.184-0.11-0.404,0-0.521,0.074c0.009-0.113-0.097-0.223-0.215-0.208
		c-0.023,0.177-0.142,0.212-0.265,0.251c-0.188-0.113-0.424-0.29-0.38-0.573c-0.243-0.124-0.237-0.354-0.513-0.449
		c0.035-0.258-0.117-0.424-0.114-0.686c-0.018-0.407-0.417-0.7-0.176-1.156c-0.082-0.184-0.24-0.354-0.075-0.499l-0.053-0.01
		c0.007-0.488-0.018-0.898,0.053-1.411l-0.081-0.014l0.011-0.082l0.088,0.008c0.158-0.294,0.177-0.665,0.363-0.937l-0.063-0.145
		l0.055,0.004c0.086-0.544,0.423-0.753,0.473-1.297l0.166-0.113c0.009-0.061-0.049-0.036-0.081-0.036l0.06-0.41
		c0.021,0.003,0.078,0.014,0.081-0.007c-0.247-0.071,0.025-0.527-0.325-0.52C41.21,8.47,41,8.311,41.124,8.035
		C41.012,8.003,40.992,8,40.909,7.894c0.01-0.053,0.053-0.131,0.003-0.195l-0.05-0.01c-0.014-0.35-0.051-0.668,0-1.04l-0.055-0.007
		l0.097-0.081c0.004-0.042-0.053-0.029-0.085-0.039c-0.008-0.523,0.04-0.863,0.195-1.361l0.051-0.336
		c0.026,0,0.082,0.007,0.087-0.017c0.003-0.029,0.037-0.092-0.013-0.114l-0.055-0.003c0.148-0.449,0.299-0.923,0.362-1.499
		c-0.184-0.167,0.186-0.294,0.004-0.467c0.124-0.407,0.428-0.979,0.664-1.397c0.117-0.169,0.191-0.297,0.35-0.424
		c0.308-0.099,0.308-0.501,0.683-0.501c0.159-0.07,0.339-0.131,0.445-0.29c0.15-0.014,0.264-0.056,0.368-0.113H31.417h-16.82H5.812
		c-3.21,0-5.808,2.601-5.808,5.811v8.785H0v30.738C0.148,45.397,0.364,45.305,0.453,45.5z M56.166,31.271
		c0.163-0.152-0.108-0.283,0.078-0.389c-0.021-0.078-0.078-0.046-0.142-0.053l0.023-0.113c0.129-0.106,0.182-0.237,0.21-0.467
		c0.251,0.063,0.166-0.325,0.426-0.314c-0.268-0.184-0.023-0.322-0.007-0.548c0.011-0.29,0.422-0.141,0.469-0.463
		c0.159-0.063,0.104-0.36,0.36-0.294c0.072-0.102-0.032-0.148-0.018-0.261l-0.06-0.011c0.049-0.134,0.325-0.067,0.253-0.333
		c0.207-0.039,0.383-0.066,0.553-0.183c-0.021,0.077,0.179,0.102,0.216,0.024c0.138,0.053,0.177,0.205,0.384,0.173L58.9,28.157
		c-0.199-0.021-0.426-0.064-0.562,0.032c-0.009,0.053-0.018,0.12,0.041,0.127c0.237-0.201,0.453,0.283,0.594-0.06
		c0.055,0.011,0.163,0.042,0.179-0.036l0.005-0.053c0.029,0,0.109,0.039,0.145-0.017l-0.067-0.125l0.173,0.029
		c0.023-0.382,0.216-0.492,0.287-0.799c-0.021-0.064-0.078-0.042-0.142-0.046c-0.122-0.343,0.172-0.562,0.138-0.933l0.055,0.003
		c-0.122-0.544,0.511-0.333,0.366-0.905c-0.329-0.131,0.074-0.339-0.007-0.615l0.057,0.007c0.186-0.428,0.262-0.948,0.481-1.287
		c0.332-0.095,0.118-0.674,0.414-0.869c0.3-0.244,0.325-0.855,0.65-1.131c-0.056-0.375,0.389-0.251,0.355-0.608
		c0.242-0.488,0.656-0.774,0.702-1.464c0.025,0.004,0.053,0.011,0.089-0.007c-0.152-0.145,0.081-0.544-0.101-0.689
		c0.097-0.452-0.172-0.661-0.108-1.092l-0.064-0.004l0.027-0.109c0.026,0.007,0.076,0.035,0.115-0.014
		c-0.084-0.248-0.131-0.513-0.053-0.88c0.155-0.262,0.159-0.697,0.216-1.064l0.053,0.007c0.106-0.513,0.251-0.951,0.376-1.425
		c0.186-0.491,0.446-0.87,0.655-1.319c0.208-0.41,0.373-0.792,0.774-0.944c0.074-0.339,0.314-0.392,0.445-0.661
		c0.255,0.014,0.343-0.208,0.492-0.247c0.343-0.364,0.707-0.675,1.269-0.693c0.09-0.067,0.265-0.067,0.414-0.11l1.048,0.152v0.032
		c0.445,0.095,1.106,0.151,1.363,0.565c0.396,0.264,0.913,0.508,0.891,1.056c0.235,0.216,0.347,0.459,0.35,0.806
		c0.074,0.273,0.244,0.534,0.414,0.786c0.15,0.509,0.049,0.848,0.108,1.435l0.065,0.011c0.099,0.449-0.21,0.81-0.201,1.333
		c-0.299,0.049-0.152,0.499-0.325,0.707c-0.184,0.032-0.118,0.41-0.329,0.442c-0.064,0.226-0.124,0.452-0.276,0.509
		c0.02,0.679-0.67,0.626-0.624,1.308c-0.269,0.445-0.604,0.777-0.743,1.33c-0.09,0.021-0.179,0.042-0.168,0.187
		c0.124,0.336-0.141,0.559-0.233,0.817l-0.032,0.021l0.067,0.127c-0.233,0.021-0.248,0.329-0.294,0.587
		c-0.157,0.131-0.15,0.509-0.414,0.495c-0.219,0.113-0.026,0.604-0.295,0.653c-0.076,0.304-0.373,0.555-0.422,0.969
		c-0.297,0.028-0.133,0.488-0.297,0.604c-0.166,0.124-0.145,0.41-0.361,0.477c-0.03,0.453-0.403,0.605-0.611,0.834
		c-0.329-0.13-0.216,0.343-0.428,0.371c-0.276,0.283-0.417,0.697-0.559,1.082c-0.13,0.113-0.286,0.188-0.268,0.456
		c0.088,0.156,0.473,0.12,0.346,0.393c-0.133-0.074-0.103,0.103-0.219,0.109l-0.018,0.145c-0.028-0.003-0.113-0.014-0.124,0.039
		l-0.003,0.057c-0.141-0.018-0.341-0.078-0.362,0.099c0.097,0.268,0.542,0.424,0.228,0.816c-0.106,0.099-0.37-0.053-0.376,0.173
		c-0.076,0.131,0.076,0.099,0.058,0.206l0.053,0.003c0.021,0.332-0.163,0.361-0.325,0.488c-0.096,0.478-0.605,0.403-0.522,1.05
		l-0.066-0.007c-0.062,0.314-0.097,0.711-0.37,0.785c-0.138,0.183-0.162,0.526-0.452,0.516c-0.193,0.322-0.716,0.184-0.781,0.614
		c-0.17-0.028-0.251,0.142-0.378,0.198l-0.021,0.152l-0.078-0.021c-0.074,0.113-0.074,0.262-0.113,0.368
		c-0.187-0.106-0.138,0.152-0.283,0.166c0.018,0.227-0.216,0.258-0.318,0.354c-0.156-0.081-0.239,0.078-0.308,0.127
		c0,0.205-0.148,0.24-0.269,0.286c-0.057-0.046-0.094,0.015-0.099,0.067l-0.011,0.06c-0.282-0.042-0.293,0.248-0.505,0.325
		c-0.064,0.021-0.198-0.053-0.212,0.035l-0.003,0.057c-0.166-0.057-0.214,0.057-0.308,0.127l-0.453-0.057
		c-0.099-0.166-0.336,0.039-0.424-0.127c-0.146,0.04-0.202,0-0.262-0.148c-0.092,0.018-0.051,0.127-0.187,0.089
		c0.049-0.114-0.039-0.148-0.049-0.237c-0.131-0.131-0.148-0.428-0.301-0.544l-0.096-0.011c0.082-0.509-0.237-0.724-0.481-1.025
		c0.034-0.251-0.187-0.342-0.187-0.568c-0.242-0.103-0.003-0.562-0.35-0.58c0.099-0.276-0.248-0.29-0.177-0.604l0.032,0.014
		c0.131-0.13-0.023-0.445,0.044-0.728l-0.124,0.077C55.964,31.444,55.964,31.24,56.166,31.271z M40.449,22.635l-0.171-0.021
		c0.086-0.188,0.408-0.205,0.359-0.47c0.011-0.078-0.05-0.209-0.142-0.223l0.052-0.347c0.083,0.057,0.097-0.042,0.101-0.099
		c0.109-0.191,0.628-0.138,0.388-0.463c-0.007-0.12-0.151-0.223-0.061-0.414c0.149,0.021,0.254-0.106,0.288,0.04
		c0.229,0.032,0.36-0.121,0.502-0.241l0.012-0.091c0.232-0.053,0.122-0.496,0.467-0.453c0.136-0.151,0.444-0.056,0.603-0.173
		c0.53-0.092,1.032,0.088,1.65,0.229c-0.063,0.198,0.193,0.036,0.202,0.184c0.26,0.233,0.677,0.329,0.963,0.566
		c0.135,0.081,0.279,0.103,0.366,0.286c-0.118,0.014-0.056,0.194-0.101,0.279c0.142,0.046,0.276,0.099,0.228,0.23
		c0.021,0.07,0.053,0.045,0.078,0.045c-0.122,0.064-0.171,0.233-0.248,0.368l-0.152-0.17c-0.142,0.184,0.042,0.3-0.018,0.499
		c0.135,0.067,0.184-0.063,0.17-0.148l0.014-0.092l0.08,0.018c-0.155,0.29,0.173,0.456-0.001,0.636
		c0.109,0.039-0.011,0.287,0.194,0.227c0.108,0.338-0.145,0.674-0.221,0.957l0.08,0.007c-0.164-0.021-0.103,0.159-0.145,0.269
		c0.173,0.173,0.208,0.375,0.417,0.495c0.15-0.039,0.032,0.202,0.092,0.188c-0.07,0.102-0.063,0.247-0.016,0.314
		c0.023,0.021,0.051,0.032,0.079,0.035c0.103,0.512-0.244,0.877-0.134,1.379c-0.085,0.159-0.208,0.229-0.272,0.427
		c0.066,0.33-0.366,0.121-0.317,0.446c-0.083,0.13-0.343,0.12-0.263,0.392c-0.06,0.021-0.142-0.021-0.174,0
		c-0.07,0.078-0.212,0.096-0.288,0.191c-0.08,0.304-0.546,0.155-0.446,0.661c-0.125-0.155-0.286-0.007-0.436-0.003
		c-0.061,0.25-0.417,0.092-0.499,0.304c-0.463-0.208-0.668,0.167-0.867-0.24c-0.565,0.099-0.454-0.492-0.982-0.453
		c-0.014-0.269-0.47-0.124-0.396-0.438c-0.428-0.061,0.021-0.343-0.438-0.35c-0.018-0.088,0.084-0.251-0.059-0.212l-0.061-0.004
		c-0.06-0.22,0.141-0.184-0.042-0.336c-0.018-0.053-0.205-0.166-0.021-0.226c-0.088-0.007-0.044-0.103-0.037-0.152
		c0.057,0.007,0.136,0.049,0.203,0c0.117-0.208-0.22-0.06-0.172-0.233l-0.138,0.188c-0.168-0.06,0.021-0.372-0.212-0.35
		c-0.11-0.226,0.37-0.375,0.028-0.569c-0.009-0.152,0.036-0.28-0.096-0.364l0.053-0.403c0.142,0.05,0.106-0.102,0.117-0.151
		c0-0.029,0.036-0.085-0.018-0.125l-0.053-0.01l0.089-0.074c-0.089-0.124-0.089-0.361-0.117-0.537
		c0.007-0.05,0.044-0.106-0.004-0.167c-0.057-0.071-0.003-0.385-0.279-0.304C40.146,23.175,40.718,23.024,40.449,22.635z
		 M21.101,7.285c0.194-0.201,0.115-0.618,0.347-0.82c0.25-0.361,0.488-0.771,0.79-1.064c0.167-0.159,0.357-0.276,0.563-0.336
		c0.29-0.18,0.677-0.223,0.941-0.445c0.393,0.092,1.025,0.152,1.395,0l0.364,0.057c-0.005,0.025-0.011,0.081,0.016,0.096
		l0.095-0.078l-0.005,0.053c0.341,0.254,1.349,0.11,1.632,0.527c0.229,0.032,0.424,0.053,0.491,0.244
		c0.188,0.106,0.506,0.07,0.465,0.385l0.11,0.011c-0.121,0.241,0.219,0.085,0.228,0.237c0.092,0.188,0.367,0.287,0.236,0.591
		c-0.003,0.021,0.057,0.003,0.111,0.039c-0.037,0.057-0.03,0.198,0.093,0.159l0.078,0.015c0.014,0.286,0.422,0.286,0.347,0.657
		c0.231,0.177,0.154,0.569,0.385,0.743c-0.021,0.088-0.088,0.223,0.018,0.272l0.056,0.003c-0.003,0.06-0.045,0.113,0.011,0.145
		c0.036,0.145-0.007,0.407,0.191,0.495c0.014,0.297-0.003,0.608,0.074,0.876c0.02,0.499-0.042,0.665-0.049,1.152
		c0.202-0.007,0,0.205,0.138,0.227c-0.018,0.169,0.212,0.169,0.097,0.356c-0.026,0-0.08-0.007-0.09,0.021
		c0.167,0.049,0.05,0.233,0.156,0.335l-0.061,0.021c-0.076,0.117,0.032,0.148,0.061,0.216l0.051,0.003
		c-0.192,0.318,0.228,0.467-0.019,0.728c-0.074,0.333,0.051,0.867-0.032,1.234c-0.032,0.438,0.224,0.671,0.159,1.124
		c0.141,0.046,0.207,0.184,0.155,0.35c-0.011,0.025,0.055,0.032,0.074,0.032c-0.155,0.297,0.115,0.449,0.014,0.729
		c0.258,0.035-0.065,0.452,0.29,0.417c-0.08,0.138,0.094,0.163,0.042,0.262l0.067,0.011c0.049,0.215-0.016,0.495,0.135,0.608
		c0.107,0.272-0.139,0.41,0.122,0.597c-0.211,0.046-0.073,0.509-0.261,0.598c-0.138,0.152-0.012,0.286-0.007,0.46l0.121,0.014v0.378
		l-0.03-0.003c0.055,0.014-0.106,0.332,0.142,0.25c-0.269,0.453,0.274,0.506,0.132,0.895c0.23,0.23,0.009,0.697,0.237,0.927
		c-0.025,0.399,0.048,0.707,0.267,1c-0.051,0.533,0.165,0.858,0.216,1.332c0.062,0.208,0.045,0.466,0.138,0.65
		c-0.023,0.293,0.03,0.559,0.009,0.934l0.051,0.01c-0.016,0.516,0.009,0.979-0.07,1.559h0.055c-0.17,0.371-0.269,0.855-0.389,1.272
		l-0.015,0.092l-0.055-0.014c-0.09,0.456-0.228,0.771-0.316,1.173c-0.122,0.099-0.202,0.233-0.308,0.361
		c-0.063,0.223-0.339,0.152-0.426,0.347c-0.292-0.014-0.511,0.103-0.753,0.219c-0.178,0.173-0.552-0.025-0.696,0.216
		c-0.221-0.127-0.221,0.106-0.315,0.155c-0.109,0.184-0.393,0.117-0.508,0.301c-0.086-0.011-0.062-0.159-0.182-0.142
		c-0.057,0.014-0.044,0.109-0.05,0.163c-0.198-0.053-0.267-0.562-0.518-0.244c-0.078-0.071-0.044-0.29-0.285-0.248
		c-0.03,0.025-0.03,0.057-0.039,0.089c-0.184,0.056-0.099-0.131-0.175-0.173c-0.143-0.021-0.037,0.226-0.223,0.109l-0.039-0.35
		c-0.111-0.046-0.148,0.035-0.207,0.056l-0.012,0.057l-0.055-0.011l0.103-0.095c-0.29-0.046-0.264-0.396-0.445-0.329
		c0.028-0.194-0.301-0.159-0.239-0.35c-0.313-0.046-0.214-0.354-0.555-0.372c0.023-0.205-0.2-0.205-0.147-0.396
		c-0.018-0.063-0.109-0.053-0.166-0.056l0.124-0.071c-0.29,0.021,0.061-0.364-0.268-0.322c0.145-0.247-0.114-0.25-0.207-0.353
		c-0.058-0.269,0.016-0.548-0.256-0.644c-0.081-0.247-0.161-0.52-0.406-0.64c0.007-0.057,0.055-0.167-0.064-0.146l-0.053-0.017
		c0.145-0.233-0.152-0.188-0.152-0.347c-0.156-0.124-0.088-0.406-0.186-0.565c0.007-0.233-0.177-0.35-0.111-0.626l-0.087-0.014
		c0.15-0.269-0.273-0.276-0.008-0.492c-0.216-0.555,0.207-1.071,0.187-1.743c-0.074-0.324-0.258-0.642-0.096-1.145
		c0.103-0.127,0.182-0.47,0.052-0.601l-0.048-0.007c-0.007-0.378,0.099-0.731-0.046-0.993l-0.078-0.01
		c-0.003-0.148,0.078-0.336,0.004-0.432c0.157-0.269,0.131-0.683-0.042-0.909l-0.053-0.003c0.053,0.003,0.092-0.078,0.078-0.159
		l-0.188-0.117l0.074-0.106l-0.24-0.121l0.071-0.109c-0.021-0.057-0.078-0.032-0.109-0.042c0.053-0.17-0.053-0.209-0.132-0.276
		l-0.115-0.014c0.092-0.018,0.118-0.223,0.134-0.333c-0.435,0.028,0.046-0.544-0.361-0.544c0.018-0.088,0.059-0.17,0.004-0.205
		l-0.053-0.007c0.166-0.346-0.129-0.739,0.219-0.897c-0.13-0.365,0.125-0.941,0.046-1.354c-0.29-0.215-0.173-0.629-0.113-1.061
		c-0.23,0-0.205-0.166-0.375-0.223c0.069-0.219-0.233-0.187-0.269-0.332c-0.025-0.241-0.237-0.322-0.237-0.552
		c-0.167-0.053-0.053-0.24-0.182-0.314c-0.196-0.121-0.034-0.439-0.283-0.541c-0.135-0.219-0.126-0.481-0.147-0.743
		c-0.283-0.042,0.09-0.444-0.228-0.465c-0.125-0.106,0.124-0.449-0.129-0.453c0.17-0.41-0.163-0.513-0.016-0.927
		c-0.104-0.109-0.108-0.25-0.083-0.445c0.085,0.007,0.078-0.109,0.078-0.138c-0.016-0.064-0.11-0.042-0.199-0.053
		C20.974,8.166,21.005,7.911,21.101,7.285z"/>
	<path fill="#00843d" d="M37.305,55.62c0.21-0.403-0.352-0.339-0.401-0.576c-0.023,0.169-0.293,0.215-0.393,0.088
		c0.044-0.113,0.096-0.283,0.196-0.347c-0.018-0.067,0.041-0.117-0.005-0.152h-0.06l-0.059-0.623l-0.138-0.024l0.081-0.156
		c-0.32-0.017-0.465-0.212-0.544-0.424l0.037-0.282c0.117-0.046,0.148-0.071,0.221-0.18c-0.179-0.163-0.552-0.131-0.635-0.386
		l-0.052-0.003c0.08-0.188-0.12-0.215-0.167-0.308l-0.074-0.014c-0.014-0.177-0.205-0.23-0.262-0.414
		c-0.2-0.032-0.269-0.156-0.339-0.287c0.046-0.129,0.312-0.182,0.103-0.323c-0.191-0.255-0.217,0.112-0.223-0.259l-0.053-0.011
		c0.095-0.045,0.099-0.113,0.219-0.117c-0.134-0.109-0.42-0.092-0.364-0.342c-0.076-0.22-0.322-0.336-0.251-0.615
		c-0.05-0.063-0.147-0.057-0.219-0.061c0.053-0.247-0.037-0.205,0.104-0.368c-0.416,0.068-0.206-0.393-0.55-0.42
		c-0.024-0.068,0.082-0.167-0.029-0.181l-0.062-0.007l0.02-0.117c0.143-0.007,0.162-0.113,0.293-0.219l-0.392-0.081
		c0.184-0.095-0.055-0.212,0.049-0.371c0.092-0.018,0.249,0.091,0.271-0.078c0.035-0.053,0.184-0.06,0.233-0.166l0.306,0.049
		c0,0.025-0.009,0.078,0.023,0.082l0.096-0.074c-0.016,0.109,0.155,0.109,0.242,0.127c0.09-0.255,0.54,0.042,0.54-0.326
		c0.333,0.071,0.431-0.145,0.714-0.134c0.166-0.146,0.53-0.036,0.677-0.248c0.182,0.074,0.309,0.011,0.411-0.085
		c0.305,0.127,0.474-0.056,0.64-0.176c0.088,0.014,0.191,0.064,0.177-0.057c0.124-0.067,0.382-0.032,0.466-0.197
		c0.216,0.091,0.22-0.167,0.393-0.142c0.062-0.205,0.209-0.254,0.425-0.321l-0.071-0.121c0.357-0.045,0.53-0.271,0.693-0.6
		c0.293-0.011,0.142-0.53,0.297-0.679c-0.037-0.117-0.044-0.265-0.145-0.368c-0.01-0.099,0.097-0.247-0.01-0.293
		c0.032-0.053,0.056-0.247,0.191-0.145c0.159-0.124-0.08-0.244,0.035-0.233c0.188,0.116,0.262-0.042,0.458,0.017
		c-0.111-0.215,0.065-0.403,0.164-0.53c0.155-0.067,0.41,0,0.553-0.038c0.12,0.187-0.273,0.311,0.065,0.332
		c0.11-0.099,0.239-0.198,0.463-0.167l0.22,0.068c0,0.021-0.014,0.081,0.018,0.081c0.12-0.014,0.078-0.102,0.187-0.06
		c-0.024,0.173,0.188,0.06,0.202,0.205c0.329-0.071,0.861,0.262,1.363,0.167c-0.005,0.056-0.037,0.109,0.008,0.144
		c0.027-0.141,0.175-0.028,0.297-0.045c-0.039,0.077,0.042,0.116,0.103,0.106l0.088,0.01l-0.148,0.241
		c0.082,0.032,0.17,0.021,0.274,0.066l0.03-0.173l0.134,0.017c-0.023,0.177,0.224,0.096,0.297,0.223
		c-0.055,0.11-0.244,0.227-0.055,0.339c0.033-0.017,0.044-0.049,0.044-0.081c0.373-0.177,0.362,0.276,0.714,0.269
		c-0.04,0.088,0.007,0.151,0.092,0.138c0.18-0.039-0.028,0.226,0.109,0.241c0.233,0.006,0.113,0.223,0.248,0.303
		c-0.09,0.216,0.24,0.148,0.182,0.344c0.118,0.218,0.447,0.35,0.387,0.718l0.117,0.024c-0.037,0.053,0.003,0.141,0.099,0.13
		l0.085,0.004c-0.005,0.032,0.014,0.091,0.045,0.102l0.053,0.004c-0.141,0.35,0.216,0.346,0.366,0.516
		c-0.09,0.191-0.43,0.371-0.218,0.604c0.083,0.308-0.29,0.079-0.244,0.336c-0.07,0.109-0.308-0.039-0.254,0.173
		c-0.06-0.007-0.12,0.01-0.093,0.078l-0.018,0.078c0.018-0.078-0.064-0.127-0.15-0.135c-0.319,0.216,0.124,0.742-0.346,0.795
		c-0.063,0.272-0.325,0.241-0.396,0.524c-0.251-0.071-0.159,0.29-0.336,0.346c-0.059,0.169-0.304,0.286-0.159,0.502
		c-0.048,0.145-0.059,0.17-0.042,0.315c0.004,0.344-0.194,0.489-0.187,0.867c-0.071,0.109-0.225,0.173-0.375,0.18l-0.005,0.053
		c-0.086-0.014-0.167-0.053-0.203,0c0.053,0.215,0.195,0.47,0.11,0.654c-0.121,0.074-0.074,0.287-0.057,0.375
		c-0.085-0.021-0.163-0.061-0.196,0c0.122,0.103-0.158,0.47,0.132,0.453l-0.036,0.226l-0.162-0.021
		c-0.124,0.411-0.071,0.623-0.435,0.806c0.092,0.156,0.01,0.488-0.061,0.594c-0.059-0.042-0.311,0.156-0.162,0.329
		c-0.294,0.015-0.301,0.481-0.64,0.421c-0.011-0.106,0.036-0.223,0.014-0.308c-0.18,0.029-0.165,0.321-0.188,0.488L42.6,56.49
		c-0.133,0.164-0.303,0.142-0.488,0.198c0.037-0.077-0.002-0.169-0.094-0.135c-0.138-0.106-0.131,0.068-0.142,0.156
		c-0.046,0.141,0.094,0.167,0.011,0.297c-0.293,0.039-0.297-0.48-0.659-0.212l-0.018,0.173c0-0.056-0.083-0.07-0.164-0.088
		c-0.054,0.167-0.107,0.336-0.247,0.315c0-0.021,0.005-0.05-0.024-0.089c-0.089,0.015-0.078,0.135-0.177,0.068
		c0.039-0.089-0.106-0.082-0.069-0.159c-0.048-0.036-0.115,0.011-0.093,0.07l-0.011,0.061l-0.258-0.039
		c0.007-0.028,0.042-0.06-0.018-0.085c-0.047,0.159-0.288,0.015-0.382,0.085c0.077-0.134-0.058-0.187-0.08-0.276l-0.242,0.082
		c-0.106-0.063-0.407,0.035-0.4-0.236c-0.244-0.344-0.76,0.017-0.972-0.365c-0.184-0.091-0.115-0.367-0.301-0.48
		C37.54,55.85,37.411,55.748,37.305,55.62z M39.887,79.2c-0.041-0.042-0.071-0.092-0.081-0.159
		c-0.202-0.057-0.421-0.114-0.515-0.248l-0.152,0.063c-0.101-0.109-0.293-0.187-0.304-0.357c-0.465-0.155-0.55-0.6-0.984-0.806
		c0.024-0.173,0.024-0.377-0.142-0.427c-0.329,0.092-0.417-0.3-0.732-0.368c-0.168-0.173-0.229-0.388-0.445-0.501
		c-0.071,0.074-0.253-0.056-0.428-0.056c0.023-0.18-0.257-0.032-0.261-0.188c-0.15-0.018-0.06-0.201-0.237-0.177
		c-0.085,0.185-0.272,0.106-0.447,0.082c-0.041-0.117-0.221-0.063-0.334-0.106c0.007-0.035,0.011-0.064-0.013-0.088
		c-0.03-0.007-0.111-0.042-0.118,0.006l-0.007,0.061c-0.05-0.067-0.135-0.135-0.276-0.13c-0.029,0.024-0.032,0.056-0.039,0.078
		l-0.17-0.014c0-0.032,0.039-0.053-0.014-0.089c-0.212,0.053-0.573,0.113-0.735,0.039c-0.421,0.114-0.753-0.194-1.22-0.173
		c-0.405-0.036-0.241-0.329-0.693-0.219l-0.003,0.053l-0.599-0.077c0.054-0.17-0.223-0.036-0.235-0.188
		c-0.255-0.035-0.28-0.265-0.53-0.332c-0.032-0.208-0.379-0.195-0.402-0.399c-0.176-0.029-0.192-0.124-0.369-0.085
		c-0.389-0.146-0.933-0.167-1.414-0.262c-0.095-0.304-0.675-0.127-0.909-0.336l0.018-0.109c-0.09,0.011-0.276-0.071-0.329,0.071
		c-0.53-0.142-0.895-0.018-1.427-0.146c-0.127-0.113-0.262,0.014-0.348-0.198c-0.293-0.16-0.456-0.062-0.753-0.231
		c0.09-0.219-0.142-0.188-0.251-0.268c-0.236-0.117-0.348-0.365-0.626-0.488c-0.13-0.291-0.522-0.368-0.657-0.651
		c0.099-0.297-0.276-0.292-0.435-0.371c-0.245-0.303-0.362-0.724-0.774-0.873c0-0.205-0.42-0.114-0.343-0.417
		c-0.229-0.068-0.276-0.308-0.376-0.435c-0.139-0.025,0.034-0.262-0.101-0.307c-0.223-0.061-0.019-0.439-0.339-0.45
		c-0.17-0.053-0.177-0.4-0.536-0.347c-0.097-0.099-0.232-0.197-0.362-0.275c-0.021-0.233-0.216-0.29-0.18-0.541
		c-0.189-0.12-0.375-0.205-0.502-0.36c-0.082-0.021-0.117-0.194-0.195-0.24c0.004-0.27-0.469-0.159-0.457-0.442
		c-0.067-0.042-0.183-0.05-0.31-0.071l0.339-0.109c-0.258-0.085-1.517-1.329-1.425-1.633c0.194-0.318-0.781-0.976-0.949-1.103
		c-0.065-0.308,0.299-0.774,0.013-0.994c0.011-0.014,0.037-0.099-0.013-0.124c-0.186,0.025-0.267,0.304-0.458,0.386
		c-0.115-0.021-0.052-0.174-0.125-0.241c-0.155,0-0.254,0.05-0.389,0.159c0,0,0.015,0.042,0.036,0.05l-0.021,0.053l-0.101-0.042
		c0.051-0.135-0.108-0.131-0.136-0.206c-0.275-0.014-0.951-0.332-1.258-0.424c-0.046-0.112-0.198-0.208-0.209-0.329l-0.12,0.074
		c-0.088-0.187-0.361-0.258-0.444-0.438c0-0.248-0.301-0.343-0.196-0.604c-0.063-0.082-0.173-0.103-0.286-0.141
		c0.007-0.096,0.127-0.167,0.021-0.209c-0.262,0.053-0.384-0.215-0.594-0.297c0.145-0.283-0.101-0.368-0.135-0.598
		c-0.399-0.006-0.231-0.372-0.604-0.361c0.014-0.024,0.036-0.081,0.004-0.095c-0.317,0.036-0.53,0.046-0.766-0.233
		c0.062-0.159-0.141-0.202-0.153-0.329c-0.02-0.021-0.039,0.042-0.053,0.068c0.025-0.058-0.035-0.138-0.127-0.138
		c-0.024-0.021-0.053,0.035-0.056,0.07c-0.272-0.021-0.127-0.325-0.354-0.361c-0.018-0.123-0.067-0.233-0.24-0.276
		c-0.124,0.015-0.221-0.049-0.304,0.071c-0.146,0-0.034-0.135-0.106-0.191c-0.354-0.357-0.823-0.262-1.099-0.644
		c-0.376-0.452-0.877,0.121-1.032-0.372c-0.02-0.014-0.071-0.059-0.114-0.014c-0.065,0.103-0.232-0.029-0.312,0
		c-0.192,0.272-0.529,0.106-0.854-0.024c-0.138-0.414-0.81-0.127-0.901-0.591c-0.179-0.01-0.167-0.191-0.354-0.201
		c-0.044,0.201-0.216,0.077-0.269,0.205c-0.141-0.024-0.339-0.223-0.427-0.07c-0.673-0.323-1.249-0.202-1.917-0.368l-0.025,0.045
		l-0.07-0.123c-0.036,0.024-0.046,0.049-0.064,0.078c-0.053-0.184-0.392-0.247-0.592-0.294l-0.019,0.058l-0.127-0.058
		c-0.036-0.169-0.206-0.201-0.365-0.297C0.029,55.418,0.016,55.426,0,55.422v9.185h0.004v8.786c0,3.205,2.598,5.803,5.808,5.803
		h8.785V79.2H39.887z M76.853,44.146c-0.378-0.23-0.378,0.212-0.683,0.099c-0.01,0.125-0.127,0.132-0.215,0.121
		c0.024,0.445-0.347,0.414-0.343,0.785c-0.22,0.056-0.216,0.441-0.544,0.335c-0.306,0.333-0.679,0.509-1.205,0.548l-0.077,0.103
		c-0.329-0.127-0.525,0.247-0.942,0.152l-0.015,0.092c0.015-0.092-0.076-0.132-0.155-0.146c-0.041,0.259-0.363,0.092-0.49,0.163
		c-0.182,0.092-0.332,0.304-0.615,0.266c-0.138,0.151-0.364,0.176-0.61,0.205c-0.167,0.145-0.482,0.13-0.765,0.088l-0.011,0.085
		c-0.36,0.092-0.583-0.173-0.845,0.079c-0.155,0.038-0.332,0.038-0.44,0.141c-0.525-0.131-0.779,0.215-1.165,0.297
		c-0.109-0.042-0.18,0.032-0.293,0.045l-0.012,0.082c-0.262-0.003-0.511-0.106-0.628,0.114c-0.42,0.091-0.905,0.021-1.22,0.236
		c-0.154,0.035-0.386,0.032-0.509,0.127c-0.208,0-0.451-0.092-0.638-0.032c-0.092,0.039-0.135-0.074-0.156-0.146
		c-0.018-0.056-0.076-0.035-0.104-0.042c-0.039,0.021-0.039,0.063-0.039,0.082c-0.113-0.236-0.552-0.191-0.701-0.417
		c-0.327-0.079-0.441-0.354-0.683-0.45c-0.065-0.152-0.421-0.106-0.297-0.382c-0.021-0.011-0.029-0.027-0.046-0.038
		c-0.041,0.07-0.053,0.155-0.122,0.208c-0.145,0.117-0.318,0.146-0.484,0.117c-0.009,0.4,0.032,0.795-0.134,1.164
		c0.169,0.258,0.103,0.676,0.138,1.032c0.169,0.058,0.103,0.308,0.115,0.453c-0.15,0.219-0.246,0.456-0.419,0.633
		c-0.036,0.322,0.385,0.576,0.056,0.877c-0.484,0.141-0.329,0.648-0.394,1.125l0.055,0.011l-0.06,0.456
		c-0.159,0.071-0.131,0.293-0.308,0.312c-0.138,0.555-0.665,0.743-0.866,1.209c-0.184,0.053-0.467-0.039-0.554,0.17
		c-0.369-0.025-0.389,0.494-0.663,0.604c-0.066,0.074-0.056,0.191-0.074,0.279c-0.223-0.032-0.228,0.226-0.282,0.4
		c-0.218,0.042-0.365,0.117-0.456,0.332l-0.045,0.315c-0.028,0-0.083-0.011-0.093,0.045c-0.023,0.17,0.205,0.174,0.09,0.397
		c0.106,0.042,0.252,0.032,0.367,0.077l-0.009,0.053c0.076,0.063,0.196,0.028,0.304,0.074l-0.142,0.36l0.015-0.061
		c-0.085-0.035-0.223-0.059-0.315-0.038l-0.011,0.042l-0.308-0.039c0.034-0.074,0.184-0.262,0.05-0.368
		c-0.169-0.024-0.198-0.233-0.412-0.148l-0.007,0.068c-0.189-0.092-0.295,0.006-0.44,0.049c-0.048,0.079-0.166,0.121-0.308,0.124
		c0.099,0.082,0.177,0.17,0.088,0.332c-0.254-0.011-0.254,0.4-0.441,0.481c-0.148-0.159,0.148-0.209,0.032-0.424
		c-0.205,0.024-0.235,0.226-0.315,0.393c-0.2-0.057-0.059,0.191-0.173,0.176c-0.004,0.018,0.028,0.036,0.051,0.036
		c-0.067,0.046-0.182,0.091-0.17,0.237c-0.037-0.003-0.065-0.011-0.09,0.01c0.025,0.181,0.231,0.212,0.258,0.393l0.102-0.109
		c-0.042-0.121,0.101-0.297,0.131-0.495l0.109,0.011c-0.092,0.308-0.217,0.522-0.364,0.756l-0.055-0.003
		c0.011-0.109,0.037-0.29-0.148-0.226l-0.053-0.004l0.122-0.066c-0.05-0.071-0.103-0.05-0.167-0.057
		c-0.029,0.057-0.088,0.223-0.01,0.255c-0.143,0.014-0.194,0.155-0.339,0.159c0.135,0.102,0.145,0.223,0.283,0.279
		c-0.237,0.053-0.253-0.074-0.435,0.053l0.011,0.117c0.099,0.067,0.198,0,0.29-0.05c-0.014,0.142-0.32,0.011-0.244,0.28
		c0.021,0.035,0.085,0.017,0.11,0.042l-0.078,0.17c0.021,0.06,0.074,0.032,0.138,0.045l-0.019,0.106
		c0.072,0.095,0.122-0.029,0.157-0.05l-0.033-0.218l0.184-0.032l-0.218-0.113c0.051-0.167,0.262-0.046,0.41-0.057
		c-0.334,0.329-0.161,0.729-0.399,1.159c-0.173,0.615,0.283,0.885,0.366,1.323c0.108,0.077,0.256,0.045,0.32,0.024
		c0.042,0.237,0.453,0.206,0.608,0.378c0.095,0.127,0.138,0.251,0.302,0.3l-0.044,0.318l-0.053-0.014
		c-0.041,0.082-0.067,0.22-0.045,0.311l0.056,0.01l-0.011,0.085c-0.085-0.042-0.095,0.042-0.109,0.1
		c0,0.028-0.028,0.085,0.014,0.117l0.06,0.014c-0.092,0.018-0.115,0.181-0.142,0.326c0.034,0.024,0.06,0.035,0.089,0.038
		l-0.015,0.124c-0.035-0.01-0.051-0.042-0.095,0.008c0.081,0.059,0.099,0.13,0.06,0.24c-0.035-0.011-0.085-0.014-0.103,0.042
		c0,0.029-0.039,0.079,0.018,0.117l0.058,0.008c-0.235,0.198-0.238,0.633-0.521,0.795c0.152,0.169-0.096,0.251-0.085,0.392
		c-0.21,0.061-0.131,0.478-0.261,0.604l-0.057-0.006c-0.104,0.329-0.127,0.7-0.381,0.873c0.084,0.586-0.355,0.636-0.375,1.159
		c-0.099,0.071-0.166,0.18-0.161,0.325l-0.055-0.007c-0.235,0.424-0.159,1.076-0.536,1.309l-0.101,0.682l-0.057-0.006
		c-0.116,0.208-0.212,0.431-0.318,0.6c-0.085,0.435-0.469,0.647-0.375,1.217l0.057,0.01c-0.138,0.181-0.248,0.509-0.417,0.687
		c-0.15,0.212-0.184,0.436-0.447,0.457c-0.15,0.672-0.525,1.019-0.772,1.566c-0.23-0.028-0.085,0.368-0.307,0.312
		c-0.06,0.597-0.714,0.53-0.767,1.106c-0.142,0.007,0.018,0.29-0.179,0.226c-0.138,0.185-0.251,0.347-0.442,0.492l-0.115-0.021
		c-0.071,0.081-0.063,0.226-0.078,0.335c-0.083-0.035-0.173,0.007-0.166,0.1l-0.007,0.081c-0.223,0.142-0.403,0.403-0.65,0.517
		c-0.074,0.106-0.219,0.113-0.318,0.191C48.521,78.8,48.154,79.03,47.74,79.2h16.867v-0.004h8.786c3.206,0,5.804-2.598,5.804-5.803
		v-8.786h0.004V43.963C78.401,44.043,77.046,44.005,76.853,44.146z"/>
	<g>
		<path fill="#4b4b45" d="M134.104,47.661c-1.342,8.95-7.33,14.38-16.394,14.38c-12.419,0-17.957-11.471-17.957-22.441
			c0-10.959,5.538-22.43,17.957-22.43c8.951,0,14.939,5.148,16.394,14.374l-8.281,1.121c-0.839-4.533-2.853-8.616-8.113-8.616
			c-7.495,0-9.005,9.958-9.005,15.551c0,5.6,1.511,15.554,9.005,15.554c5.207,0,7.273-4.078,8.113-8.557L134.104,47.661z"/>
		<rect x="139.121" y="17.837" fill="#4b4b45" width="8.28" height="43.528"/>
		<path fill="#4b4b45" d="M171.769,42.453c0-3.525-1.4-6.993-5.368-6.993c-3.752,0-5.264,3.638-5.371,6.993H171.769z
			 M160.747,47.661c-0.278,3.802,1.911,8.282,6.157,8.282c2.636,0,4.334-1.729,5.217-4.541l7.759,0.899
			c-1.789,6.211-7.773,9.74-13.706,9.74c-9.119,0-13.762-8.061-13.762-16.338c0-8.337,4.586-16.336,13.762-16.336
			c7.888,0,13.927,3.744,13.706,18.295H160.747z"/>
		<path fill="#4b4b45" d="M230.65,42.453c0-3.525-1.398-6.993-5.372-6.993c-3.747,0-5.258,3.638-5.366,6.993H230.65z
			 M219.629,47.661c-0.277,3.802,1.911,8.282,6.158,8.282c2.636,0,4.334-1.729,5.215-4.541l7.761,0.899
			c-1.789,6.211-7.773,9.74-13.706,9.74c-9.119,0-13.763-8.061-13.763-16.338c0-8.337,4.587-16.336,13.763-16.336
			c7.887,0,13.927,3.744,13.706,18.295H219.629z"/>
		<polygon fill="#4b4b45" points="200.408,61.365 191.678,61.365 181.943,30.038 190.614,30.038 196.096,53.181 196.209,53.181 
			201.58,30.038 209.861,30.038 		"/>
		<rect x="244.334" y="17.837" fill="#4b4b45" width="8.281" height="43.528"/>
		<path fill="#4b4b45" d="M275.819,47.046c-3.416,0.615-10.185,0.95-10.185,5.538c0,1.845,0.895,3.358,2.852,3.358
			c3.414,0,5.759-2.019,7.333-4.087V47.046z M276.314,58.483c-3.079,2.182-4.974,3.557-8.941,3.557c-5.434,0-9.85-3.698-9.85-9.287
			c0-8.844,11.634-10.633,18.297-11.361c0.555-4.359-0.9-5.932-3.97-5.932c-2.632,0-4.539,1.173-4.986,3.917l-7.942-1.227
			c1.846-6.66,6.324-8.784,12.868-8.784c8.445,0,12.306,4.023,12.306,9.901v15.555c0,2.237,0.113,4.475,1.121,6.543h-7.964
			C276.557,59.941,276.314,58.483,276.314,58.483z"/>
		<path fill="#4b4b45" d="M299.082,33.279c2.627-2.181,5.871-3.914,9.341-3.914c3.408,0,8.221,2.072,8.221,9.789v22.211h-8.283
			V42.513c0-2.525,0.175-6.491-3.408-6.491c-2.411,0-4.307,1.732-5.871,3.412v21.932h-8.287V30.038h8.287V33.279z"/>
		<path fill="#4b4b45" d="M402.072,47.661c-1.347,8.95-7.323,14.38-16.389,14.38c-12.425,0-17.957-11.471-17.957-22.441
			c0-10.959,5.532-22.43,17.957-22.43c8.953,0,14.939,5.148,16.389,14.374l-8.274,1.121c-0.845-4.533-2.853-8.616-8.115-8.616
			c-7.5,0-9.011,9.958-9.011,15.551c0,5.6,1.511,15.554,9.011,15.554c5.198,0,7.27-4.078,8.115-8.557L402.072,47.661z"/>
		<rect x="407.103" y="17.837" fill="#4b4b45" width="8.28" height="43.528"/>
		<path fill="#4b4b45" d="M430.601,61.365h-8.286V30.038h8.286V61.365z M430.601,25.449h-8.286v-7.611h8.286V25.449z"/>
		<path fill="#4b4b45" d="M445.642,33.279c2.63-2.181,5.879-3.914,9.347-3.914c3.412,0,8.224,2.072,8.224,9.789v22.211h-8.287
			V42.513c0-2.525,0.177-6.491-3.404-6.491c-2.407,0-4.305,1.732-5.879,3.412v21.932h-8.281V30.038h8.281V33.279z"/>
		<path fill="#4b4b45" d="M478.317,61.365h-8.287V30.038h8.287V61.365z M478.317,25.449h-8.287v-7.611h8.287V25.449z"/>
		<path fill="#4b4b45" d="M510.271,51.242c-1.339,6.542-6.097,10.798-13.09,10.798c-9.12,0-13.757-8.061-13.757-16.338
			c0-8.337,4.589-16.336,13.757-16.336c6.993,0,11.751,4.25,13.09,10.796l-7.511,1.011c-0.559-2.531-1.383-5.712-5.58-5.712
			c-4.476,0-5.257,6.329-5.257,10.242c0,3.917,0.782,10.24,5.257,10.24c4.196,0,4.794-2.875,5.547-5.688L510.271,51.242z"/>
		<path fill="#4b4b45" d="M341.58,51.412c-1.276,1.952-2.901,3.579-5.363,3.579c-4.981,0-5.706-6.044-5.706-9.792
			c0-3.468,0.951-9.291,5.535-9.291c2.406,0,4.087,1.679,5.534,3.416V51.412z M349.865,55.787V17.837h-8.286V33.11
			c-2.346-2.072-4.356-3.744-7.712-3.744c-4.534,0-11.47,3.97-11.47,15.555c0,13.199,5.815,17.12,12.143,17.12
			c3.464,0,5.335-1.206,7.851-3.447c0,0,0.251,1.509,0.924,2.771h7.656C350.104,59.591,349.908,57.699,349.865,55.787z"/>
	</g>
	<g>
		<path fill="#0078bf" d="M562.436,47.646c-1.341,8.957-7.324,14.384-16.386,14.384c-12.418,0-17.962-11.471-17.962-22.437
			c0-10.963,5.544-22.434,17.962-22.434c8.949,0,14.938,5.145,16.386,14.381l-8.274,1.114c-0.838-4.529-2.851-8.613-8.111-8.613
			c-7.498,0-9.004,9.955-9.004,15.552c0,5.596,1.506,15.55,9.004,15.55c5.203,0,7.273-4.081,8.111-8.558L562.436,47.646z"/>
		<path fill="#0078bf" d="M575.255,33.269c2.622-2.178,5.867-3.914,9.337-3.914c3.408,0,8.224,2.068,8.224,9.792v22.211h-8.278
			V42.502c0-2.517,0.165-6.491-3.415-6.491c-2.399,0-4.309,1.736-5.867,3.415v21.933h-8.285V17.831h8.285V33.269z"/>
		<path fill="#0078bf" d="M606.521,25.441h-8.274v-7.611h8.274V25.441z M606.521,61.359h-8.274V30.027h8.274V61.359z"/>
		<path fill="#0078bf" d="M620.334,61.359h-8.276V17.831h8.276V61.359z"/>
		<path fill="#0078bf" d="M645.065,58.728c-2.514,2.239-4.474,3.302-7.941,3.302c-6.325,0-12.147-3.92-12.147-17.123
			c0-11.582,6.94-15.552,11.478-15.552c3.354,0,5.368,1.679,7.716,3.751V17.831h8.274v43.528h-6.651L645.065,58.728z
			 M638.628,35.898c-4.581,0-5.534,5.82-5.534,9.291c0,3.745,0.726,9.788,5.704,9.788c2.467,0,4.087-1.623,5.372-3.575V39.313
			C642.711,37.577,641.035,35.898,638.628,35.898z"/>
		<path fill="#0078bf" d="M666.213,35.509c3.186-3.75,5.756-6.154,9.563-6.154h1.567v8.279c-0.785-0.166-1.567-0.336-2.405-0.336
			c-2.127,0-8.726,1.958-8.726,10.292v13.769h-8.283V30.027h8.283V35.509z"/>
		<path fill="#0078bf" d="M687.09,47.646c-0.279,3.809,2.016,8.286,6.268,8.286c2.962,0,4.582-2.409,5.199-5.041l7.67,1.399
			c-1.797,6.211-7.782,9.74-13.715,9.74c-9.112,0-13.758-8.061-13.758-16.338c0-8.337,4.588-16.336,13.758-16.336
			c7.891,0,13.933,3.751,13.715,18.291H687.09z M698.111,42.449c0-3.528-1.402-6.997-5.373-6.997c-3.745,0-5.256,3.638-5.366,6.997
			H698.111z"/>
		<path fill="#0078bf" d="M719.029,33.269c2.63-2.178,5.875-3.914,9.341-3.914c3.415,0,8.224,2.068,8.224,9.792v22.211h-8.274
			V42.502c0-2.517,0.163-6.491-3.415-6.491c-2.407,0-4.31,1.736-5.875,3.415v21.933h-8.278V30.027h8.278V33.269z"/>
		<path fill="#0078bf" d="M749.354,25.773l-4.755,9.174l-3.411-1.449l2.738-7.386h-2.853v-8.282h8.28V25.773z"/>
		<path fill="#0078bf" d="M764.013,39.201c-0.395-2.178-1.124-3.748-3.583-3.748c-1.957,0-3.359,1.453-3.359,3.468
			c0,5.374,15.166,1.457,15.166,13.203c0,6.657-5.536,9.906-11.919,9.906c-6.431,0-10.512-3.136-11.355-9.63l7.777-0.838
			c0.17,2.242,1.343,4.371,3.856,4.371c2.074,0,4.03-0.956,4.03-3.363c0-5.478-15.159-1.007-15.159-13.203
			c0-6.317,5.428-10.011,11.519-10.011c5.485,0,9.908,3.472,10.858,8.894L764.013,39.201z"/>
	</g>
</g>
</svg>
